{
  "title": "Babu Bangaram Telugu 2016 DesiSCR x264-Hindify.mp4",
  "uid": 15593393,
  "size": 1008298749,
  "categoryP": "video",
  "categoryS": "movies",
  "magnet": "?xt=urn:btih:a49cdedf80085112c48fab98d98acb9a8a442ecf&amp;dn=Babu+Bangaram+Telugu+2016+DesiSCR+x264-Hindify.mp4&amp;tr=udp%3A%2F%2Ftracker.leechers-paradise.org%3A6969&amp;tr=udp%3A%2F%2Fzer0day.ch%3A1337&amp;tr=udp%3A%2F%2Fopen.demonii.com%3A1337&amp;tr=udp%3A%2F%2Ftracker.coppersurfer.tk%3A6969&amp;tr=udp%3A%2F%2Fexodus.desync.com%3A6969",
  "seeders": 141,
  "leechers": 14,
  "uploader": null,
  "files": 1,
  "time": 1471537570,
  "description": "Babu Bangaram Telugu 2016 DesiSCR x264-Hindify.mp4\r\n\r\nScreens:\r\n \nhttp://extraimago.com/images/2016/08/18/vlcsnap-2016-08-18-11h21m19s558.png \nhttp://extraimago.com/images/2016/08/18/vlcsnap-2016-08-18-11h21m16s319.png \nhttp://extraimago.com/images/2016/08/18/vlcsnap-2016-08-18-11h21m13s165.png\r\n\r\nInfo:\r\n\r\nFormat : MPEG-4\r\nFormat profile : Base Media\r\nCodec ID : isom (isom/iso2/avc1/mp41)\r\nFile size : 962 MiB\r\nDuration : 2 h 23 min\r\nOverall bit rate : 934 kb/s\r\nWriting application : Lavf57.25.100\r\n\r\nVideo\r\nID : 1\r\nFormat : AVC\r\nFormat/Info : Advanced Video Codec\r\nFormat profile :   \r\nFormat settings, CABAC : Yes\r\nFormat settings, ReFrames : 4 frames\r\nCodec ID : avc1\r\nCodec ID/Info : Advanced Video Coding\r\nDuration : 2 h 23 min\r\nBit rate : 799 kb/s\r\nWidth : 672 pixels\r\nHeight : 262 pixels\r\nDisplay aspect ratio : 2.565\r\nFrame rate mode : Constant\r\nFrame rate : 25.000 FPS\r\nColor space : YUV\r\nChroma subsampling : 4:2:0\r\nBit depth : 8 bits\r\nScan type : Progressive\r\nBits/(Pixel*Frame) : 0.181\r\nStream size : 822 MiB (86%)\r\nWriting library : x264 core 142 r2479 dd79a61\r\nEncoding settings : cabac=1 / ref=1 / deblock=1:0:0 / analyse=0x1:0x111 / me=hex / subme=2 / psy=1 / psy_rd=1.00:0.00 / mixed_ref=0 / me_range=16 / chroma_me=1 / trellis=0 / 8x8dct=0 / cqm=0 / deadzone=21,11 / fast_pskip=1 / chroma_qp_offset=0 / threads=6 / lookahead_threads=2 / sliced_threads=0 / nr=0 / decimate=1 / interlaced=0 / bluray_compat=0 / constrained_intra=0 / bframes=3 / b_pyramid=2 / b_adapt=1 / b_bias=0 / direct=1 / weightb=1 / open_gop=0 / weightp=1 / keyint=250 / keyint_min=25 / scenecut=40 / intra_refresh=0 / rc_lookahead=10 / rc=crf / mbtree=1 / crf=20.0 / qcomp=0.60 / qpmin=0 / qpmax=69 / qpstep=4 / vbv_maxrate=20000 / vbv_bufsize=25000 / crf_max=0.0 / nal_hrd=none / filler=0 / ip_ratio=1.40 / aq=1:1.00\r\nColor range : Limited\r\nColor primaries : BT.601 PAL\r\nTransfer characteristics : BT.709\r\nMatrix coefficients : BT.601\r\n\r\nAudio\r\nID : 2\r\nFormat : AAC\r\nFormat/Info : Advanced Audio Codec\r\nFormat profile : LC\r\nCodec ID : 40\r\nDuration : 2 h 23 min\r\nBit rate mode : Constant\r\nBit rate : 128 kb/s\r\nChannel(s) : 2 channels\r\nChannel positions : Front: L R\r\nSampling rate : 48.0 kHz\r\nFrame rate : 46.875 FPS (1024 spf)\r\nCompression mode : Lossy\r\nStream size : 132 MiB (14%)\r\nTitle : Stereo\r\nDefault : Yes\r\nAlternate group : 1 \r\n \nhttp://tvmoviereviews.drupalgardens.com/content/babu-bangaram-review",
  "parsed": {
    "xt": "urn:btih:a49cdedf80085112c48fab98d98acb9a8a442ecf",
    "dn": "Babu Bangaram Telugu 2016 DesiSCR x264-Hindify.mp4",
    "tr": [
      "udp://exodus.desync.com:6969",
      "udp://open.demonii.com:1337",
      "udp://tracker.coppersurfer.tk:6969",
      "udp://tracker.leechers-paradise.org:6969",
      "udp://zer0day.ch:1337"
    ],
    "infoHash": "a49cdedf80085112c48fab98d98acb9a8a442ecf",
    "infoHashBuffer": {
      "type": "Buffer",
      "data": [
        164,
        156,
        222,
        223,
        128,
        8,
        81,
        18,
        196,
        143,
        171,
        152,
        217,
        138,
        203,
        154,
        138,
        68,
        46,
        207
      ]
    },
    "name": "Babu Bangaram Telugu 2016 DesiSCR x264-Hindify.mp4",
    "announce": [
      "udp://exodus.desync.com:6969",
      "udp://open.demonii.com:1337",
      "udp://tracker.coppersurfer.tk:6969",
      "udp://tracker.leechers-paradise.org:6969",
      "udp://zer0day.ch:1337"
    ],
    "urlList": []
  },
  "previous": 129,
  "peers": 74,
  "last_updated": "2016-12-27T09:09:34.433Z"
}